<svg xmlns="http://www.w3.org/2000/svg" width="691.625" height="388.749"><path fill-rule="evenodd" clip-rule="evenodd" fill="#00A0E4" d="M662.976 250.142H299.879L408.567 31.878h254.409z"/><path fill-rule="evenodd" clip-rule="evenodd" fill="#00A651" d="M28.982 31.878h363.225L283.518 250.142H28.982z"/><path fill-rule="evenodd" clip-rule="evenodd" fill="#FFF" d="M153.524 211.334h384.404c109.83-8.751 103.235-131.77 0-140.014H153.524c-102.728 8.244-109.196 131.263 0 140.014z"/><path fill-rule="evenodd" clip-rule="evenodd" d="M161.64 102.012h16.487v78.124H161.64v-78.124zm16.488 0H161.64m371.468 45.91c0 7.609-.634 13.19-.634 16.36 0 3.297-1.015 6.595-2.663 9.385-1.141 2.663-3.297 4.312-6.088 5.961-2.663 1.649-5.453 2.156-9.258 2.156-3.297 0-5.961-.507-8.751-2.156-2.663-1.015-4.819-3.297-6.468-5.961-1.649-2.79-2.283-6.088-2.79-9.385v-46.417c.507-3.932 1.141-6.595 2.79-9.385 1.649-2.663 3.805-4.819 6.468-5.961 2.79-1.649 5.453-2.156 8.751-2.156 3.805 0 6.595.507 8.751 2.156 2.79 1.141 4.946 3.297 6.595 5.961 1.649 2.79 2.663 5.453 2.663 9.385 0 2.663.634 8.751.634 16.36v13.697zm-15.853-25.745c0-3.805 0-5.961-.634-7.102-.507-1.141-1.015-1.649-2.156-1.649-.507 0-1.015.507-1.649 1.649-.507.507-1.015 2.79-1.015 7.102v36.652c0 4.312.507 7.102 1.015 8.244 0 1.015 1.141 1.649 1.649 1.649 1.141 0 1.649-.634 2.156-2.283.634-1.015.634-3.805.634-8.624v-35.638zm-42.613-20.165h15.219v78.124h-15.219v-78.124zm15.219 0h-15.219m-3.804 0l-9.385 35.003 9.892 43.12h-16.36l-6.595-33.355v33.355h-15.853v-78.124h15.853v30.057l7.102-30.057h15.346zm-44.262 45.91c0 7.609 0 13.19-.507 16.36 0 3.297-1.141 6.595-2.79 9.385-1.141 2.663-3.297 4.312-5.961 5.961-2.79 1.649-5.453 2.156-9.385 2.156-3.171 0-5.961-.507-8.624-2.156-2.79-1.015-4.946-3.297-6.088-5.961-1.649-2.79-2.663-6.088-2.663-9.385-.634-2.79-.634-8.751-.634-16.36v-13.697c0-7.609 0-13.063.634-16.36 0-3.932 1.015-6.595 2.156-9.385 1.649-2.663 3.805-4.819 6.595-5.961 2.156-1.649 5.453-2.156 8.624-2.156 3.932 0 6.595.507 9.385 2.156 2.156 1.141 4.312 3.297 5.961 5.961 1.649 2.79 2.156 5.453 2.79 9.385.507 2.663.507 8.751.507 16.36v13.697zm-15.853-25.745c0-3.805 0-5.961-.507-7.102 0-1.141-1.141-1.649-2.283-1.649-1.015 0-1.015.507-1.522 1.649-.634.507-.634 2.79-.634 7.102v36.652c0 4.312 0 7.102.634 8.244 0 1.015.507 1.649 1.522 1.649 1.141 0 2.283-.634 2.283-2.283.507-1.015.507-3.805.507-8.624v-35.638zm-24.604-20.165v15.853h-9.258v62.271h-15.853v-62.271h-9.258v-15.853h34.369zm-56.183 39.315h20.165v13.19h-20.165v-13.19zm20.165 0h-20.165m-3.805 6.595c0 7.609-.634 13.19-1.141 16.36 0 3.297-1.141 6.595-2.79 9.385-1.522 2.663-3.171 4.312-5.961 5.961-2.663 1.649-5.961 2.156-8.751 2.156-3.297 0-6.468-.507-9.258-2.156-2.79-1.015-4.312-3.297-6.595-5.961-1.015-2.79-2.156-6.088-2.663-9.385-.634-2.79-.634-8.751-.634-16.36v-13.697c0-7.609 0-13.063.634-16.36.507-3.932 1.015-6.595 2.663-9.385 2.283-2.663 3.805-4.819 6.595-5.961 2.156-1.649 5.453-2.156 9.258-2.156 2.79 0 6.088.507 8.244 2.156 3.297 1.141 4.946 3.297 6.468 5.961 1.649 2.79 2.79 5.453 2.79 9.385.507 2.663 1.141 8.751 1.141 16.36v13.697zm-16.487-25.745c0-3.805 0-5.961-.507-7.102 0-1.141-.507-1.649-1.649-1.649-1.015 0-2.156.507-2.156 1.649-.507.507-.507 2.79-.507 7.102v44.896c.507 1.015 1.015 1.649 2.156 1.649 1.649 0 2.156-.634 2.156-2.283.507-1.015.507-3.805.507-8.624v-35.638zm-26.126 13.697h-16.36v-20.799c-.634-1.141-1.141-1.649-2.283-1.649-1.649 0-2.156.507-2.663 2.156-.507 1.141-.507 3.297-.507 7.229v36.652c0 3.678 0 6.468.507 7.609.507 1.015 1.015 1.649 2.663 1.649 1.141 0 1.649-.634 2.283-1.649v-18.136h16.36v2.79c0 8.244-.634 14.204-1.141 17.502-1.141 3.297-3.297 6.595-5.961 8.751-3.297 2.663-7.102 3.805-11.541 3.805-4.819 0-8.751-1.141-11.414-3.171-3.297-2.283-5.453-4.946-6.595-9.385-1.015-3.297-1.649-9.258-1.649-16.994v-22.448c0-5.961.634-9.765.634-13.063.507-2.79 1.015-5.453 3.171-8.244 1.141-2.156 3.297-4.312 6.088-5.961 2.156-1.649 5.961-2.156 9.258-2.156 4.312 0 8.244 1.015 12.048 3.297 2.663 2.663 4.819 5.453 5.961 9.258.507 3.297 1.141 8.244 1.141 15.853v7.104zm-68.358-33.862h26.76v15.853h-10.907v14.712h9.892v14.712h-9.892v32.847H215.16v-78.124zm-30.564 0h26.76v15.853h-10.907v14.712h9.892v14.712h-9.892v32.847h-15.853v-78.124zM59.04 274.239H44.962v1.141h11.414c0 3.678-4.439 6.975-11.414 6.975-8.751 0-11.921-3.805-11.921-8.117 0-3.805 3.171-8.244 11.921-8.244 5.961 0 9.765 2.79 10.273 4.439h3.297c-1.649-3.932-6.595-6.088-13.57-6.088-10.4 0-15.219 4.946-15.219 9.892 0 4.819 4.819 9.765 15.219 9.765 4.312 0 9.131-1.015 11.414-3.805v3.297h2.663v-9.255zm580.981 9.258h22.321v-1.141h-19.024v-7.609H661.2v-1.649h-17.882v-6.595h19.024v-1.649h-22.321v18.643zm-15.726-13.063c-.507-3.932-7.102-6.088-13.063-6.088-10.273 0-15.092 4.946-15.092 9.892 0 4.819 4.819 9.765 15.092 9.765 8.244 0 13.063-3.297 13.57-7.609h-3.171c-.634 3.297-4.439 5.961-10.4 5.961-8.117 0-12.429-3.805-12.429-8.117 0-3.805 4.312-8.244 12.429-8.244 4.946 0 8.751 1.649 10.4 4.439h2.664zm-68.866 13.063h3.297v-15.853l18.389 15.853h3.805v-18.643h-3.297v15.853l-18.897-15.853h-3.297v18.643zm-42.359 0h3.297l3.805-5.453h14.585l4.439 5.453h2.663l-12.429-18.643h-3.297l-13.063 18.643zm14.712-16.994l5.961 9.892h-12.556l6.595-9.892zm-51.618 16.994h2.79v-8.117h11.921c5.961 0 5.961 2.663 6.468 5.327 0 .634 0 2.283.507 2.79h3.805c-1.522-.507-1.522-3.297-1.522-4.946-.634-2.156-1.649-3.805-5.453-3.805 3.805-.507 5.961-2.663 5.961-4.946 0-3.297-4.312-4.946-9.765-4.946h-14.712v18.643zm2.79-16.994h11.921c4.312 0 6.468 1.649 6.468 3.297 0 2.79-2.663 3.932-6.468 3.932h-11.921v-7.229zm-44.515 10.526c0 3.678 3.805 6.975 12.429 6.975 8.751 0 12.556-3.297 12.556-6.975v-12.175h-3.297v11.541c0 4.312-3.297 5.961-9.258 5.961s-9.131-1.649-9.131-5.961v-11.541h-3.297v12.175zm-40.203.381c-.507 4.946 5.453 6.595 12.556 6.595 11.414 0 12.429-4.312 12.429-5.453 0-3.171-3.297-4.312-8.117-4.819l-8.117-1.141c-2.156 0-4.312-1.141-4.312-2.79 0-2.663 3.171-3.805 8.117-3.805 4.312 0 8.117 1.141 8.117 4.439h3.297c0-3.932-5.453-6.088-11.414-6.088-9.765 0-11.414 3.805-11.414 5.453 0 2.79 3.297 3.932 7.102 4.439l7.483 1.141c2.79.507 6.595 1.015 6.595 3.171 0 2.79-5.453 3.805-8.751 3.805-5.961 0-10.78-1.015-10.78-4.946h-2.791zm-41.218 6.087h3.805v-15.853l18.516 15.853h3.805v-18.643h-3.297v15.853l-18.389-15.853h-4.439v18.643zm-19.531 0h3.297v-18.643h-3.297v18.643zm-62.397 0h21.18v-1.141h-18.39v-17.502h-2.79v18.643zm-42.233 0h3.171l3.805-5.453h14.712l3.805 5.453h3.297l-12.556-18.643h-3.297l-12.937 18.643zm14.585-16.994l5.961 9.892h-12.936l6.975-9.892zm-51.491 16.994h2.663v-8.117h11.921c5.961 0 6.595 2.663 6.595 5.327 0 .634 0 2.283 1.015 2.79h2.79c-1.141-.507-1.141-3.297-1.141-4.946-.507-2.156-1.649-3.805-5.961-3.805 4.312-.507 6.468-2.663 6.468-4.946 0-3.297-4.312-4.946-9.765-4.946h-14.585v18.643zm2.664-16.994h11.921c4.439 0 6.595 1.649 6.595 3.297 0 2.79-3.297 3.932-6.595 3.932h-11.921v-7.229zm-40.077 16.994h22.194v-1.141h-19.024v-7.609h18.009v-1.649h-18.009v-6.595h19.024v-1.649h-22.194v18.643zm-42.359 0h3.297v-15.853l19.024 15.853h3.171v-18.643H134.5v15.853l-18.516-15.853h-3.805v18.643zm-36.906 0h22.321v-1.141H78.063v-7.609h18.389v-1.649H78.063v-6.595h19.531v-1.649H75.273v18.643zM147.69 327.125c.507.507 1.015 2.156 1.015 3.805.634 1.649 1.141 3.805 1.141 5.961v21.433c0 1.649-.507 3.297-.507 4.312-.634.507-.634.507-1.141 1.015-.507.634-1.015.634-1.649 1.141H144.9c-.507 0-1.015 0-1.522-.507-.634-.634-.634-1.649-1.141-2.663v-4.439c.507-1.649.507-3.805 1.141-5.453v-11.541c0-1.649 0-2.663-.634-4.312v-.634h-.507c-1.141 1.141-2.156 2.283-2.79 3.932-1.015 1.649-2.156 3.297-2.663 5.327-.507 1.649-1.649 3.297-2.156 5.58-.507 1.649-.507 3.297-1.141 4.946-.507.507-1.015.507-1.649 1.015 0 .634-.507.634-1.015 1.141h-3.804l-1.141-14.712v-.634h-.507c-1.141 1.141-2.156 2.283-2.79 3.932-1.015 1.522-2.156 2.663-2.156 4.819-1.015 1.649-1.649 3.297-2.156 4.946 0 1.649-.507 3.805-1.015 4.946-.634.507-1.141.507-1.649.507 0 .634-1.141.634-1.141.634H111.801c-.634-1.141-.634-3.297-.634-5.58 0-2.156 1.141-4.946 1.141-7.609 1.015-2.663 1.649-5.453 2.156-8.244.507-2.663 1.141-5.453.507-7.609.634-.634 1.649-1.141 2.283-1.649.507-.634 1.015-.634 2.156-1.141 1.015.507 2.156.507 2.663.507 1.141.634 1.649.634 2.79.634 1.015.507 2.156.507 3.171.507.634 0 1.649 0 2.79.507 0 1.649.507 3.297.507 5.58.507 1.649.507 3.297.507 5.453h.634c1.015-1.649 2.156-2.79 3.171-4.439.634-1.649 1.649-3.297 2.79-4.946.507-1.015 1.649-2.663 2.156-4.312 1.141-1.015 2.79-2.663 4.312-3.805l2.789 1.649zm422.958 10.399c1.141 0 2.156.507 3.297.507.507.507 1.015.507 2.156 1.649 0 0 1.141.507 1.141 1.141 1.015.507 1.522 1.649 2.156 1.649.507 3.297 0 5.961-1.141 9.258-.507 2.663-2.156 4.946-3.805 5.961-2.156 2.283-4.312 2.79-7.102 3.932-2.663.38-5.961 0-9.258-1.141-2.156-2.79-3.171-5.453-3.171-7.736 0-2.663 1.015-4.946 2.663-6.975 1.141-1.649 3.297-3.297 5.961-4.946 2.157-1.143 4.44-2.792 7.103-3.299zm0 4.946c-1.141 1.015-1.649 1.649-2.663 2.029-1.141.634-2.283 1.268-2.79 1.649-.507.634-1.649 1.141-2.663 2.283-.634.507-1.141 1.649-1.649 2.156v2.79c.507 0 .507 1.015 1.649 1.015 0 1.141 1.015 2.283 2.156 2.283h3.297c1.015-.634 2.156-1.141 2.663-1.649.507-.634 1.141-1.649 2.156-2.79 0-.507.634-1.649 1.141-2.79v-2.663c0-1.015 0-1.649-1.141-2.283-.507-1.015-1.014-1.522-2.156-2.03zm-38.681-21.94c1.141 1.141 1.649 3.297 1.649 4.946a13.943 13.943 0 010 6.468c0 2.283 0 4.439-.507 7.229-.507 2.156-.507 4.312-.507 5.961 1.015 0 1.522-.634 2.156-1.015.507-.634 1.015-1.141 2.156-1.649.507 0 1.141-1.141 1.649-1.649.507-.634.507-1.141 1.015-1.649.634 0 1.141-.634 1.649-.634h2.156c1.141 1.141 2.283 2.283 3.297 4.439.507 2.156 1.649 4.312 2.156 6.468.634 2.283 1.141 4.439 1.649 6.595 0 2.283.634 3.932.634 5.58 0 .38-.634 1.015-1.141 1.522-.507 0-1.141 1.141-1.649 1.649-1.141-.507-2.156-1.141-3.297-2.156-.507-.634-1.015-1.015-1.015-2.663-.634-1.141-1.141-2.283-1.141-3.297 0-1.649 0-2.79-.507-3.932 0-1.015-.507-2.663-.507-3.297 0-1.649-1.141-2.156-1.141-3.297h-1.649c-1.015 1.141-2.156 1.649-3.297 3.297-.507 1.141-1.649 2.283-2.156 3.297-1.015 1.649-1.649 3.297-2.156 4.439-.507 1.649-1.141 2.79-1.141 4.439H527.659c-.507-1.141-1.141-2.79-1.141-4.946-.507-2.79-.507-4.946 0-8.244v-8.751c.634-3.297.634-5.453 1.141-7.736 0-.507 0-1.649-.507-2.663 0-.634-.634-1.015-.634-2.156 0-.507-.507-1.649-1.015-2.156 0-.634 0-1.141.507-1.649.507-.634 1.649-.634 1.649-1.141 1.141-.507 1.649-1.141 2.156-1.649h2.152zm-24.984 17.501c1.649 0 3.805 0 5.453.507 1.649.634 2.663 1.141 3.297 2.283.507.507.507 2.156.507 3.297.507 1.649.507 3.171 0 4.312v5.961c0 1.649.507 3.297 1.015 4.946 0 2.283.634 3.297 1.141 4.946 1.141 1.015 2.156 2.663 3.805 3.297 0 1.649-.507 2.663-1.649 3.805-.507 1.141-1.649 1.141-3.297 1.141-1.015-.634-2.156-1.141-2.156-2.283-1.015-1.015-1.649-2.663-2.156-3.805 0-1.141-.507-2.79-1.141-3.805 0-1.649 0-3.297-.507-4.312-.507-1.141-.507-2.79-1.015-3.297-.634-1.141-1.141-1.649-1.649-1.649-.634 1.015-1.649 2.156-2.79 3.297-1.649 1.015-3.171 1.649-4.312 2.156-2.156.507-3.297 1.141-4.946 1.141h-5.961c-1.649-2.283-2.663-3.297-2.663-5.58 0-1.649 0-2.663.507-4.312.507-1.649 1.649-2.79 3.297-3.932 1.649-1.015 2.663-2.663 4.819-3.171 1.649-1.141 3.297-2.156 4.946-2.79 2.157-.504 4.313-1.645 5.455-2.153zm-5.454 6.088c-1.649.38-2.79 1.649-3.805 2.029-1.141 1.141-2.156 1.649-3.297 3.297-1.015 1.141-1.015 2.283-2.156 3.932 2.156 1.649 3.297 2.156 5.453 1.649 1.649 0 2.663-.634 4.312-1.649 1.649-1.141 2.79-2.283 3.805-3.932 1.141-1.015 2.156-2.156 2.79-3.297v-4.82h-2.79c-1.649 1.142-3.17 2.157-4.312 2.791zm-25.618-26.379c1.649.634 3.297.634 4.946 1.141 1.015.507 2.156 1.649 3.297 2.79 0 1.015.507 2.156 0 3.805-.634 1.141-1.141 2.156-2.283 3.171-1.015 1.141-2.156 2.283-3.805 3.297-1.015 1.141-2.663 2.283-4.312 3.297-1.141.634-2.663 1.649-4.312 2.283-1.141 1.015-2.283 2.156-2.283 2.663 0 .634.634.634 1.141 1.141 0 0 1.141.507 1.141 1.141 1.015 0 1.015 0 2.156.507.507 0 1.015 0 1.649.507 1.649.634 2.663 1.649 3.805 2.283.507 1.015 2.156 2.029 2.663 3.678 1.141 1.141 2.156 2.283 3.297 3.297.507 1.649 1.141 2.79 1.649 4.439.507 1.141.507 2.79 1.015 3.805v3.805c-.507 1.141-1.015 1.649-2.156 2.156-1.015.634-2.663 1.141-4.819.634-.634-1.141-1.141-2.283-1.141-3.297V362c.507-.38.507-1.522 1.141-2.029 0-.634 0-1.141-.634-2.283 0-1.015-.507-2.663-1.649-3.805-1.522-1.649-2.663-2.79-4.312-3.805-1.649-1.141-3.297-2.283-4.946-2.79-1.522-1.141-3.171-1.522-4.819-1.522-.507 1.522-1.141 2.663-1.141 4.312-.507 1.649-1.015 3.297-1.649 4.946-.507.507-1.015.507-1.522 1.649-1.141 0-1.649.507-2.283.507h-.507c-1.141 0-1.649 0-2.156-.507 0-1.141-.507-1.649-.507-2.79 1.522-4.439 2.156-8.751 3.171-13.697 1.141-4.312 2.283-8.751 3.297-13.57H464.496c1.141-1.649 2.156-2.79 2.663-3.932 1.141-1.649 2.283-2.663 3.297-3.805.634 0 1.649-.507 2.156-.507 1.143.002 2.284.002 3.299-.632zm-2.156 5.58c-1.141 1.015-2.156 2.156-3.297 3.297-1.015 1.649-2.156 2.663-2.663 4.819v1.649h.507c1.649-.507 3.297-1.649 5.453-3.297 1.649-1.522 3.297-3.171 3.805-4.819v-1.141h-.507c-.634-.507-1.141-.507-1.141-.507h-2.157zm-78.885 3.297c.507.507 1.522 1.015 2.156 1.649.507.38 1.015 1.015 2.156 1.015 0 1.015 1.141 1.649 1.141 2.156.507.507 1.015 1.141 2.156 1.649 0 3.805-.634 7.102-2.156 9.892-2.283 2.79-4.439 4.819-7.736 5.453-.507.507-1.015.507-1.522.507-.634 0-1.141.507-1.141.507h-1.649c-.507 0-.507.634-1.015.634.507 1.015.507 1.649 1.522 2.156 0 .507.634 1.141 1.141 1.649l1.649 1.649c.508.508 1.015 1.141 1.015 1.649 2.79 0 4.946 0 6.595-.507 2.156-1.141 2.663-3.297 2.663-5.58h3.297c.507 0 .507.634.507.634-.507 2.663-1.015 4.946-2.663 6.595-1.649 2.156-3.805 3.297-5.961 4.312-2.156.507-4.946.507-7.102 0-2.156-1.015-4.312-2.663-6.595-4.946-1.015-1.649-1.522-3.297-1.522-5.453-.634-1.649-.634-3.805 0-6.088 0-1.649.507-3.678 1.522-5.961 1.141-1.649 2.283-3.805 3.297-5.453 1.141-1.649 2.156-3.297 3.805-4.439 1.65-1.65 2.791-2.664 4.44-3.679zm-1.649 8.117c-.634.507-1.141 1.141-1.649 2.156-.507.634-.507 1.141-1.649 1.649 0 1.141-.507 1.649-1.141 2.79 0 .507-1.015 1.649-1.015 2.156v1.649c1.649-.634 3.297-1.015 4.312-1.649 1.649-1.015 2.79-2.156 3.297-3.297l.507-3.805c-.507-.507-1.015-.507-1.015-1.141.002-.001-1.139-.001-1.647-.508zm-29.93-17.502c.507 0 1.649 0 1.649.507l1.015.634s0 .507.507 2.156c0 1.141.634 2.79.634 4.946v8.116c1.015 0 2.663-.507 3.805-1.015 1.015-.634 2.156-1.141 3.171-2.283 1.141 0 2.283.634 2.283 1.141 1.015 0 1.015 1.141 2.156 1.649l-2.156 2.156c-1.141.634-1.649 1.141-2.79 1.141-1.015 1.141-2.156 1.141-3.297 1.649-.507.507-1.522.507-2.663 1.141-.507 1.015-1.141 2.663-1.649 4.312 0 1.649 0 3.297.507 4.946 0 1.649.634 3.297.634 4.946v4.946c0 1.649 0 2.663-.634 3.678-.507 1.141-1.522 2.79-2.663 3.297-1.141 0-1.649-1.015-2.156-2.156-.634-1.141-.634-2.156-1.141-3.805 0-1.649 0-2.663-.507-4.312 0-2.283 0-3.297.507-4.946 0-2.283 0-3.297.507-4.946v-2.663c-1.015-.634-2.156-.634-3.171 0-.634 0-1.649 0-2.79.507-1.015 0-1.649.507-2.663.507-1.141 1.015-1.649 1.015-2.156 1.649-.634-.634-1.141-.634-1.649-.634-.634-.38-1.141-.38-2.156-1.015v-1.015l2.156-2.79c1.649-1.141 3.805-1.649 5.453-2.156 1.649 0 3.805-1.141 5.961-1.649 1.015-.634 1.015-1.649 1.015-3.297v-4.946c-.507-1.649-1.015-3.805-1.015-4.946v-4.312c1.015-.634 1.015-.634 1.649-.634.505.004 1.013-.504 1.647-.504zm-32.721 20.799c1.649 0 3.297 0 4.946.507 1.649.634 2.663 1.141 3.171 2.283.634.507 1.141 2.156 1.141 3.297v15.219c.507 2.283 1.141 3.297 2.156 4.946.634 1.015 1.649 2.663 3.297 3.297 0 1.649-.507 2.663-1.141 3.805-1.015 1.141-2.156 1.141-3.805 1.141-1.015-.634-1.649-1.141-2.156-2.283-1.015-1.015-1.015-2.663-2.156-3.805 0-1.141-.507-2.79-.507-3.805-.634-1.649-.634-3.297-1.141-4.312-.507-1.141-.507-2.79-1.015-3.297-.634-1.141-.634-1.649-1.649-1.649-.634 1.015-1.649 2.156-2.79 3.297-1.015 1.015-2.663 1.649-4.312 2.156-1.649.507-3.297 1.141-5.453 1.141h-4.946c-2.156-2.283-2.663-3.297-3.171-5.58 0-1.649 0-2.663 1.015-4.312.507-1.649 1.649-2.79 3.297-3.932 1.141-1.015 2.663-2.663 4.312-3.171 1.649-1.141 3.805-2.156 5.453-2.79 1.649-.504 3.805-1.645 5.454-2.153zm-5.961 6.088c-1.141.38-2.79 1.649-3.805 2.029-1.649 1.141-2.156 1.649-3.297 3.297-.507 1.141-1.015 2.283-1.649 3.932 1.649 1.649 3.297 2.156 4.946 1.649 1.649 0 2.663-.634 4.312-1.649 1.649-1.141 2.79-2.283 4.439-3.932 1.015-1.015 2.156-2.156 2.663-3.297 0-.38-.507-1.015-.507-1.015V341.328h-2.79c-1.648 1.142-3.297 2.157-4.312 2.791zm-32.086 20.165c-.634 0-1.141.507-1.649.507h-2.156l-.634-.507s0-1.141-.507-2.283v-3.678c-.507-1.649-.507-3.297-.507-5.58v-5.453c0-1.522 0-2.79.507-4.312 0-.507 0-1.649.507-2.156 1.141-.634 2.156-1.141 3.297-2.283.507-.507 1.649-1.015 2.663-2.156 1.141-.507 1.649-1.141 2.79-1.649 1.141-1.141 1.649-1.649 2.663-1.649 0-.507.634-.507 1.141-.507h6.595c1.015 1.015 1.522 3.297 1.522 4.946v3.805c-.507 1.649-1.522 2.156-2.663 2.79-1.649.38-3.297.38-5.453.38v-5.96c-2.663.634-4.312 1.649-4.946 3.297-1.015 1.649-1.649 3.297-1.649 5.453s.634 4.439.634 6.088v6.595c0 .507 0 .507-.634 1.015-.507.634-.507.634-.507 1.015 0 0-.507.634-1.015 1.141v1.141zm-18.516-29.55c1.015 0 1.649.507 2.156.507s.507 0 1.015.634c.634 0 .634.507 1.141.507.507.507.507 1.141 1.141 1.141-.634 1.015-.634 1.649-.634 2.156-.507 1.141-.507 1.649-.507 2.79 0 .507 0 1.015-.507 2.029v2.79c-1.141 1.141-1.649 3.297-2.156 4.946-.634 1.649-1.649 3.297-2.79 4.946-1.015 1.649-2.156 2.79-3.805 4.439-1.649 1.015-2.663 2.029-4.312 2.663-1.649 0-3.297-1.141-4.946-1.649-1.649-.634-2.663-1.015-3.805-2.663 0-.634-.507-1.649-.507-2.79-.634-1.649-1.141-2.79-1.141-4.946 0-1.649-.507-2.79-.507-4.946 0-1.522 0-3.171.507-4.312 0-1.649 0-2.79.507-4.439.634-.507 1.141-1.649 1.649-2.156.634 0 .634 0 1.141.507h1.141l2.156 2.283c-.634 2.156-1.141 3.805-1.141 5.961 0 1.649 0 3.297.507 4.946 0 1.649 1.141 2.663 1.141 4.312 1.141 1.141 1.649 2.79 2.156 3.932h2.156c0-.634.634-1.649 1.141-2.283.507-1.015 1.649-1.649 1.649-2.663 1.015-.634 1.649-1.649 2.156-2.283.507-1.015 1.141-1.649 1.141-2.663.507-1.141 1.015-2.283.507-2.663 0-1.268 0-2.283-.507-2.79v-4.946c0-.507.507-1.141 1.015-1.649.508-.507 1.142-1.141 1.142-1.648zm-50.73-10.907h1.141c.507.507 1.141.507 1.649.507 0 1.141.507 2.283 1.141 3.297V336.382c0 1.649-.634 3.297-1.141 4.439l.507.507c1.649 0 3.297-1.141 4.439-2.156 1.015-1.141 2.156-2.283 3.171-3.297 1.141-1.141 2.156-2.283 3.297-3.297 1.649-1.141 3.297-1.141 5.453-1.141.507.507.507 1.141.507 1.649.634 0 .634.507.634 1.141l-4.946 4.946c-1.649 1.649-3.805 3.297-4.312 5.327.507 1.268 1.522 2.79 3.171 4.946 1.649 1.141 2.79 2.79 4.439 4.946 1.649 1.141 3.171 2.79 4.819 3.932 1.649 1.649 3.805 3.297 4.946 3.678v2.282l-2.663 1.649c-.634 0-1.649-.634-3.297-1.141-1.141-.507-2.156-1.649-3.805-2.79-1.649-1.015-2.79-2.029-4.439-3.678-1.649-1.141-2.663-2.79-3.805-3.932-1.649-1.015-2.663-2.156-3.171-3.297-1.141-1.015-1.649-1.649-2.283-2.663-1.015.507-1.522 1.015-2.156 1.649-.507 1.015-1.015 1.649-1.649 2.663 0 1.141-.507 2.283-1.015 3.297 0 1.141 0 1.649-.634 3.297 0 .634-.507 1.649-1.015 2.663-.507.634-1.141 1.141-2.156 1.649h-1.141c-.507-.507-1.015-.507-1.015-.507h-1.141c0-1.141 0-2.663.507-3.805 0-1.649.634-2.663.634-4.312 1.015-1.141 1.015-2.283 1.522-3.932.634-1.015 1.141-2.663 1.649-3.805-1.015-1.141-1.015-2.156-1.015-3.805.507-1.015.507-2.156 1.015-3.297 0-1.649.634-2.663.634-4.312.507-1.141.507-2.283 0-3.297-.634-1.141-.634-2.283-1.141-3.297-.507-.634-.507-1.649-.507-2.663 0-.634 1.015-1.141 1.015-2.283.634 0 .634-.507 1.141-.507h1.016zm-16.868 7.61c1.141.507 2.283 1.141 2.79 1.649.507.507 1.015 1.649 1.649 2.156-1.141.634-1.649 1.141-2.79 2.283-1.015.507-2.156 1.015-3.805 1.649-1.015.507-2.156 1.015-3.171 1.649-1.649 0-2.79.507-3.932.507v1.649c2.283 0 4.439 0 6.088.507 2.156 0 4.312.634 5.961 1.015 1.649 1.268 2.663 1.649 3.805 3.297.507 1.141 1.141 2.79.507 4.946-.507 1.649-1.649 2.79-2.663 4.439-1.141 1.141-2.79 2.79-4.439 3.805-2.156 1.015-3.805 2.156-5.961 2.663-2.156 1.141-3.805 1.141-5.453 1.141-1.015-1.141-1.015-2.156-1.649-3.171-.507-1.141-.507-2.283-.507-3.932.507 0 1.141-.507 1.141-.507.507 0 1.015-.507 1.015-.507 1.141.507 1.649.507 2.156 1.015 1.141 0 1.649.634 2.283 1.141 1.015-.507 2.156-1.141 2.663-1.141 1.141-.507 1.649-1.015 2.156-2.156 1.141 0 1.649-1.141 2.156-1.649.634-1.141.634-1.649 1.141-2.79-1.141-.507-2.156-1.649-3.805-1.649-1.649-1.015-3.297-1.015-4.946-1.649h-5.961c-1.649-.507-3.805-.507-5.453-.507l-.507-1.141c0-.38 0-.38-.507-1.015 0 0 0-.634.507-.634v-1.522c1.141-1.141 2.663-2.156 4.312-3.297 1.649-1.141 3.805-1.649 5.453-2.156 1.649-1.141 3.805-1.649 5.453-2.79 1.65-1.142 3.299-1.65 4.313-3.298zm-29.296 3.297c.507 0 1.649.507 1.649.507 1.015 0 1.015 0 1.522.634.634 0 .634.507 1.141.507.507.507.507 1.141 1.141 1.141-.634 1.015-.634 1.649-.634 2.156-.507 1.141-.507 1.649-.507 2.79 0 .507-.507 1.015-.507 2.029v2.79c-1.141 1.141-1.649 3.297-2.156 4.946-1.141 1.649-2.283 3.297-3.297 4.946-1.141 1.649-2.156 2.79-3.297 4.439-1.649 1.015-2.663 2.029-4.312 2.663-1.649 0-3.805-1.141-4.946-1.649-1.649-.634-2.663-1.015-3.805-2.663 0-.634-.507-1.649-1.141-2.79 0-1.649-.507-2.79-1.015-4.946v-9.258c0-1.649.507-2.79 1.015-4.439 0-.507 1.141-1.649 1.649-2.156.634 0 .634 0 1.141.507h1.015l1.649 2.283c-.507 2.156-.507 3.805-.507 5.961v4.946c.507 1.649 1.141 2.663 1.649 4.312.507 1.141 1.649 2.79 2.156 3.932h1.649c.507-.634 1.141-1.649 1.649-2.283.507-1.015 1.015-1.649 1.649-2.663.507-.634 1.649-1.649 1.649-2.283 1.015-1.015 1.015-1.649 1.649-2.663.507-1.141.507-2.283.507-2.663 0-1.268 0-2.283-.507-2.79 0-1.141-.634-2.156-.634-2.79v-2.156c.634-.507 1.141-1.141 1.649-1.649.503-.507.503-1.141 1.137-1.648z"/><path fill-rule="evenodd" clip-rule="evenodd" fill="#00A651" d="M28.982 298.082v13.19h228.664l6.468-12.683z"/><path fill-rule="evenodd" clip-rule="evenodd" fill="#00A0E4" d="M661.581 311.272v-13.19H280.475l-6.468 12.682z"/><path fill-rule="evenodd" clip-rule="evenodd" d="M656.635 16.172c-1.015 0-2.029.254-3.044.761-1.015.634-1.776 1.395-2.283 2.41-.634 1.015-.888 2.029-.888 3.044 0 1.141.254 2.156.761 3.171.634 1.015 1.395 1.776 2.41 2.283 1.015.634 2.029.888 3.044.888 1.141 0 2.156-.254 3.171-.888 1.015-.507 1.776-1.268 2.41-2.283a6.88 6.88 0 00.761-3.171c0-1.015-.254-2.029-.888-3.044-.507-1.015-1.268-1.776-2.283-2.41a6.883 6.883 0 00-3.171-.761zm0 1.015c.888 0 1.776.254 2.663.634a5.861 5.861 0 011.902 2.029c.507.761.761 1.649.761 2.536 0 1.015-.254 1.776-.761 2.663-.38.761-1.015 1.522-1.902 1.902-.888.507-1.649.761-2.663.761-.888 0-1.649-.254-2.536-.761-.888-.38-1.522-1.141-1.902-1.902-.507-.888-.761-1.649-.761-2.663 0-.888.254-1.776.761-2.536a5.861 5.861 0 011.902-2.029c.887-.381 1.775-.634 2.536-.634zm-2.663 8.75h1.015V23.02h.634c.507 0 .761.127.888.254.38.254.761.761 1.141 1.522l.634 1.141h1.395l-.888-1.395a6.131 6.131 0 00-1.015-1.268c-.127-.127-.254-.254-.507-.38.507 0 1.015-.254 1.395-.634.38-.38.507-.761.507-1.268 0-.38-.127-.634-.38-1.015-.127-.254-.38-.507-.761-.634s-1.015-.127-1.776-.127h-2.283v6.721zm1.014-3.804v-2.029h1.268c.507 0 .888 0 1.141.127.127 0 .38.127.38.254.127.254.254.38.254.634s-.127.507-.38.761c-.254.127-.634.254-1.268.254h-1.395z"/></svg>